{
  "accessors": [
    {
      "bufferView": 0,
      "byteOffset": 0,
      "componentType": 5125,
      "normalized": false,
      "count": 169512,
      "type": "SCALAR",
      "max": [
        29272.0
      ],
      "min": [
        0.0
      ]
    },
    {
      "bufferView": 1,
      "byteOffset": 0,
      "componentType": 5126,
      "normalized": false,
      "count": 29273,
      "type": "VEC3",
      "max": [
        3560.728515625,
        901.777099609375,
        2132.9462890625
      ],
      "min": [
        -2165.1552734375,
        0.0,
        -2610.71630859375
      ]
    }
  ],
  "asset": {
    "generator": "pygltflib@v1.16.5",
    "version": "2.0"
  },
  "bufferViews": [
    {
      "buffer": 0,
      "byteOffset": 0,
      "byteLength": 678048
    },
    {
      "buffer": 1,
      "byteOffset": 0,
      "byteLength": 351276
    }
  ],
  "buffers": [
    {
      "uri": "gltf_buffer_0.bin",
      "byteLength": 678048
    },
    {
      "uri": "gltf_buffer_1.bin",
      "byteLength": 351276
    }
  ],
  "materials": [
    {
      "pbrMetallicRoughness": {
        "baseColorFactor": [
          0.4,
          0.4,
          0.4,
          1.0
        ],
        "metallicFactor": 1.0,
        "roughnessFactor": 0.9036020036098448
      },
      "emissiveFactor": [
        0.0,
        0.0,
        0.0
      ],
      "alphaMode": "OPAQUE",
      "doubleSided": true
    }
  ],
  "meshes": [
    {
      "extras": {
        "processed": true
      },
      "primitives": [
        {
          "attributes": {
            "POSITION": 1
          },
          "indices": 0,
          "mode": 4,
          "material": 0
        }
      ],
      "name": "geometry_0"
    }
  ],
  "nodes": [
    {
      "children": [
        1
      ],
      "name": "world"
    },
    {
      "mesh": 0,
      "name": "geometry_0"
    }
  ],
  "scene": 0,
  "scenes": [
    {
      "nodes": [
        0
      ]
    }
  ]
}